Coordinates
version=1
nRows=34
nColumns=38
inDegrees=no

Units are S.I. units (second, meters, Newtons, ...)
If the header above contains a line with 'inDegrees', this indicates whether rotational values are in degrees (yes) or radians (no).

endheader
time	pelvis_tilt	pelvis_list	pelvis_rotation	pelvis_tx	pelvis_ty	pelvis_tz	hip_flexion_r	hip_adduction_r	hip_rotation_r	knee_angle_r	ankle_angle_r	subtalar_angle_r	mtp_angle_r	hip_flexion_l	hip_adduction_l	hip_rotation_l	knee_angle_l	ankle_angle_l	subtalar_angle_l	mtp_angle_l	lumbar_extension	lumbar_bending	lumbar_rotation	arm_flex_r	arm_add_r	arm_rot_r	elbow_flex_r	pro_sup_r	wrist_flex_r	wrist_dev_r	arm_flex_l	arm_add_l	arm_rot_l	elbow_flex_l	pro_sup_l	wrist_flex_l	wrist_dev_l
20	1.15817	1.50371	0.344987	0.845249	-0.856504	0.964242	-0.0214144	0.143715	-0.24446	0.215586	0.27145	0	0	0.246579	-0.201055	-0.205352	0.337678	0.138993	0	0	-0.12076	0.15405	0.105509	0.323565	-0.122488	0.357752	1.65304	1.5708	0	0	0.703875	-0.401323	0.179044	0.984615	0.677117	0	0
20.01	1.16943	1.50363	0.331883	0.846281	-0.855883	0.964053	-0.0233651	0.145179	-0.242608	0.214801	0.271207	0	0	0.251113	-0.204831	-0.216976	0.347227	0.139419	0	0	-0.121343	0.154684	0.105534	0.326573	-0.117822	0.357364	1.64903	1.5708	0	0	0.706031	-0.401678	0.178331	0.980999	0.677438	0	0
20.02	1.20744	1.49307	0.286854	0.847119	-0.856204	0.964876	-0.0259208	0.156979	-0.24722	0.206277	0.261247	0	0	0.252792	-0.217346	-0.219318	0.346814	0.13406	0	0	-0.124824	0.16886	0.111812	0.332519	-0.118485	0.360192	1.64456	1.5708	0	0	0.704978	-0.39694	0.167084	0.97716	0.678565	0	0
20.03	1.18826	1.50381	0.30888	0.848477	-0.854847	0.963813	-0.0263821	0.147706	-0.237247	0.214658	0.2718	0	0	0.25114	-0.205731	-0.218763	0.34629	0.132751	0	0	-0.123202	0.155108	0.106327	0.332331	-0.110608	0.358857	1.64028	1.5708	0	0	0.708484	-0.403335	0.173647	0.977536	0.677681	0	0
20.04	1.21967	1.49406	0.270604	0.849228	-0.855199	0.964672	-0.0280941	0.158009	-0.244329	0.208023	0.263092	0	0	0.252551	-0.216812	-0.218892	0.345626	0.127512	0	0	-0.126777	0.168358	0.112199	0.338858	-0.111629	0.362563	1.63458	1.5708	0	0	0.707129	-0.398887	0.162259	0.974727	0.677192	0	0
20.05	1.20677	1.50486	0.286621	0.850474	-0.853916	0.963646	-0.0289666	0.148701	-0.235243	0.215792	0.272823	0	0	0.251022	-0.205273	-0.218126	0.34588	0.127433	0	0	-0.125477	0.154728	0.106378	0.339691	-0.103735	0.361915	1.62892	1.5708	0	0	0.711409	-0.403836	0.167052	0.973061	0.676814	0	0
20.06	1.21362	1.50586	0.277786	0.851435	-0.853471	0.96356	-0.0299362	0.148401	-0.235353	0.216999	0.274331	0	0	0.250889	-0.204574	-0.218416	0.345601	0.12523	0	0	-0.126478	0.153821	0.106593	0.34298	-0.100314	0.363253	1.62347	1.5708	0	0	0.713042	-0.404485	0.166113	0.970377	0.676859	0	0
20.07	1.2177	1.50641	0.271464	0.852408	-0.853031	0.963462	-0.0308879	0.148734	-0.234167	0.217332	0.274577	0	0	0.251077	-0.204396	-0.219127	0.345448	0.123231	0	0	-0.127274	0.153308	0.106864	0.346367	-0.0970473	0.364893	1.618	1.5708	0	0	0.714003	-0.405099	0.163397	0.967882	0.676186	0	0
20.08	1.21893	1.50644	0.267795	0.853389	-0.852626	0.963351	-0.0316224	0.149617	-0.232545	0.21732	0.27452	0	0	0.251647	-0.204784	-0.220036	0.345329	0.121136	0	0	-0.127914	0.153191	0.107345	0.350047	-0.0937767	0.366826	1.61259	1.5708	0	0	0.715322	-0.405369	0.160033	0.964691	0.674981	0	0
20.09	1.34275	1.50474	0.145855	0.854312	-0.851638	0.963978	-0.0671538	0.164319	-0.191893	0.158839	0.245385	0	0	0.24399	-0.208485	-0.219559	0.343747	0.119753	0	0	-0.135614	0.156533	0.104449	0.353925	-0.0899748	0.368557	1.60684	1.5708	0	0	0.71783	-0.405661	0.157561	0.960366	0.672805	0	0
20.1	1.28746	1.50655	0.195096	0.855308	-0.851665	0.963535	-0.0439314	0.155057	-0.214883	0.202934	0.265669	0	0	0.247181	-0.207162	-0.224435	0.343112	0.117055	0	0	-0.134138	0.153582	0.108023	0.358566	-0.0862084	0.37037	1.60168	1.5708	0	0	0.720765	-0.406	0.155756	0.956472	0.673129	0	0
20.11	1.24795	1.50768	0.231628	0.856094	-0.85142	0.963193	-0.0374692	0.151978	-0.222966	0.213519	0.272314	0	0	0.250004	-0.205706	-0.225836	0.342275	0.113663	0	0	-0.132726	0.151612	0.108903	0.362323	-0.0819798	0.371071	1.59643	1.5708	0	0	0.723353	-0.406368	0.153195	0.952406	0.673266	0	0
20.12	1.35713	1.48793	0.116145	0.856788	-0.851893	0.965186	-0.0334262	0.166249	-0.245243	0.225298	0.263358	0	0	0.246492	-0.229368	-0.226749	0.341127	0.108707	0	0	-0.143756	0.176456	0.116257	0.370589	-0.0840651	0.374949	1.59059	1.5708	0	0	0.723019	-0.39982	0.139353	0.947122	0.674414	0	0
20.13	1.23215	1.50851	0.242525	0.857703	-0.850786	0.962889	-0.0358234	0.151429	-0.223319	0.218274	0.275429	0	0	0.251505	-0.205464	-0.228524	0.340009	0.108053	0	0	-0.134019	0.149847	0.110847	0.370835	-0.0743498	0.372693	1.58431	1.5708	0	0	0.729864	-0.406091	0.146212	0.943996	0.672282	0	0
20.14	1.22779	1.50837	0.244408	0.858513	-0.850445	0.962766	-0.0360183	0.152255	-0.221293	0.218444	0.275107	0	0	0.251965	-0.206039	-0.230094	0.338394	0.105734	0	0	-0.134831	0.149507	0.112622	0.374676	-0.0706746	0.372645	1.57817	1.5708	0	0	0.733703	-0.405424	0.144131	0.940219	0.672269	0	0
20.15	1.33627	1.48949	0.129162	0.85931	-0.850832	0.96462	-0.0267676	0.164426	-0.265222	0.247406	0.276026	0	0	0.248076	-0.229322	-0.23303	0.336484	0.101916	0	0	-0.145244	0.17292	0.12134	0.382527	-0.0726031	0.375881	1.57136	1.5708	0	0	0.734245	-0.398716	0.132798	0.936253	0.673589	0	0
20.16	1.21702	1.50801	0.24945	0.860084	-0.849728	0.96259	-0.0360347	0.153714	-0.217723	0.219231	0.273707	0	0	0.251859	-0.207544	-0.236327	0.333285	0.100084	0	0	-0.13597	0.149006	0.116586	0.383439	-0.0647181	0.374994	1.56423	1.5708	0	0	0.740173	-0.40378	0.139307	0.933905	0.67303	0	0
20.17	1.20414	1.50734	0.258649	0.860897	-0.849336	0.962484	-0.0353996	0.154702	-0.215788	0.219782	0.272547	0	0	0.251631	-0.208788	-0.241367	0.32953	0.0942155	0	0	-0.135958	0.149157	0.118869	0.387461	-0.0619006	0.375805	1.55792	1.5708	0	0	0.742317	-0.4036	0.137063	0.931981	0.673711	0	0
20.18	1.18354	1.50652	0.275156	0.861676	-0.848865	0.962343	-0.0353632	0.156072	-0.211173	0.218004	0.270186	0	0	0.251444	-0.210002	-0.247601	0.324882	0.0838925	0	0	-0.135302	0.149387	0.120897	0.390982	-0.0587697	0.376726	1.55203	1.5708	0	0	0.743376	-0.403939	0.134222	0.930974	0.675451	0	0
20.19	1.28561	1.48719	0.164791	0.862398	-0.849067	0.964157	-0.0262441	0.169109	-0.252083	0.244812	0.269697	0	0	0.246842	-0.233882	-0.255109	0.320308	0.0670178	0	0	-0.14427	0.173261	0.129479	0.397787	-0.060949	0.379986	1.54551	1.5708	0	0	0.740806	-0.398604	0.12241	0.929764	0.677205	0	0
20.2	1.14837	1.50441	0.301404	0.863101	-0.847761	0.96207	-0.0357176	0.158705	-0.202738	0.214779	0.266449	0	0	0.249948	-0.212766	-0.26266	0.314205	0.0473871	0	0	-0.133438	0.149793	0.124135	0.397064	-0.0524399	0.37793	1.53863	1.5708	0	0	0.743112	-0.404829	0.127985	0.930832	0.679825	0	0
20.21	1.12974	1.50303	0.315022	0.863756	-0.84714	0.961968	-0.0354298	0.159769	-0.199836	0.21407	0.265182	0	0	0.248707	-0.21452	-0.271803	0.308068	0.0243694	0	0	-0.132079	0.150089	0.125544	0.399147	-0.0488451	0.37752	1.53267	1.5708	0	0	0.741461	-0.40458	0.122764	0.931411	0.682205	0	0
20.22	0.964262	1.50927	0.473893	0.864546	-0.846575	0.960557	-0.0248386	0.145462	-0.20917	0.224064	0.276703	0	0	0.253164	-0.20499	-0.282904	0.303428	0.00780858	0	0	-0.123101	0.137338	0.126824	0.399992	-0.0429517	0.375457	1.52773	1.5708	0	0	0.740898	-0.407277	0.122694	0.933348	0.682789	0	0
20.23	1.10457	1.50012	0.330381	0.864831	-0.84576	0.961916	-0.0360971	0.161826	-0.194754	0.211675	0.260331	0	0	0.245116	-0.217686	-0.286535	0.298552	-0.000843924	0	0	-0.129877	0.151232	0.12712	0.403537	-0.0419046	0.374764	1.52223	1.5708	0	0	0.73473	-0.403079	0.107544	0.936483	0.688647	0	0
20.24	0.945626	1.50614	0.482549	0.86544	-0.845171	0.960569	-0.0262147	0.148109	-0.201706	0.219944	0.270051	0	0	0.249113	-0.207097	-0.291809	0.296102	-0.000931046	0	0	-0.120868	0.138769	0.128475	0.404208	-0.0370841	0.371385	1.51882	1.5708	0	0	0.73253	-0.405115	0.105459	0.940766	0.689432	0	0
20.25	0.917108	1.5043	0.504567	0.865834	-0.84428	0.960553	-0.0241722	0.148101	-0.19977	0.221546	0.26902	0	0	0.247396	-0.207536	-0.296039	0.29309	0.00079216	0	0	-0.117955	0.139144	0.130788	0.405169	-0.0355615	0.369612	1.51587	1.5708	0	0	0.726404	-0.403485	0.0963215	0.946853	0.691379	0	0
20.26	0.913447	1.503	0.50235	0.866121	-0.843224	0.960753	-0.0260107	0.149102	-0.193864	0.218603	0.265326	0	0	0.243954	-0.208192	-0.300182	0.290281	0.00219643	0	0	-0.116752	0.139971	0.132213	0.406502	-0.0349123	0.369015	1.51374	1.5708	0	0	0.719242	-0.401344	0.0844972	0.954312	0.697311	0	0
20.27	1.08724	1.49445	0.326813	0.865992	-0.842051	0.962546	-0.043997	0.167259	-0.173204	0.198946	0.244084	0	0	0.23265	-0.220852	-0.299188	0.287141	0.00103912	0	0	-0.126345	0.155013	0.13129	0.41019	-0.0370186	0.369299	1.51137	1.5708	0	0	0.711268	-0.395867	0.0682468	0.960728	0.704451	0	0
20.28	0.949816	1.50153	0.457924	0.866218	-0.841159	0.961485	-0.0347372	0.152467	-0.180344	0.208056	0.253922	0	0	0.235734	-0.209268	-0.302889	0.285111	4.28526e-05	0	0	-0.1178	0.142171	0.132159	0.41104	-0.0349443	0.366746	1.50983	1.5708	0	0	0.707346	-0.396971	0.0661969	0.966731	0.705508	0	0
20.29	1.10889	1.48236	0.291773	0.865665	-0.840632	0.964092	-0.0490686	0.17849	-0.169733	0.186195	0.225056	0	0	0.227985	-0.232771	-0.303104	0.282003	-0.00379839	0	0	-0.126997	0.169864	0.136919	0.417041	-0.0423012	0.370055	1.50768	1.5708	0	0	0.695339	-0.386225	0.0410057	0.972804	0.716053	0	0
20.3	1.07991	1.49301	0.322292	0.865725	-0.838738	0.963467	-0.049729	0.167745	-0.159011	0.192318	0.230322	0	0	0.223298	-0.219712	-0.303181	0.279046	-0.00300414	0	0	-0.123415	0.15603	0.130687	0.415627	-0.0400201	0.366713	1.50669	1.5708	0	0	0.692145	-0.389134	0.0432198	0.978269	0.717247	0	0
20.31	0.935284	1.50135	0.461908	0.865656	-0.837768	0.96243	-0.0390565	0.151168	-0.16814	0.203634	0.240146	0	0	0.226436	-0.20655	-0.306414	0.276973	-0.00344821	0	0	-0.114504	0.141845	0.130913	0.413453	-0.0406989	0.36542	1.50691	1.5708	0	0	0.688331	-0.39094	0.0466738	0.984543	0.718081	0	0
20.32	1.0723	1.49416	0.323838	0.865091	-0.836484	0.964123	-0.051508	0.165316	-0.153012	0.19218	0.221914	0	0	0.216944	-0.217077	-0.305759	0.274572	-0.00470748	0	0	-0.121806	0.154509	0.13046	0.414575	-0.0462232	0.36446	1.50668	1.5708	0	0	0.68101	-0.386165	0.0411745	0.990743	0.724207	0	0
20.33	1.08464	1.49394	0.309404	0.864466	-0.835485	0.964429	-0.0525476	0.165081	-0.151111	0.193201	0.218136	0	0	0.214301	-0.217223	-0.306234	0.274564	-0.00427821	0	0	-0.122488	0.155895	0.130163	0.428073	-0.0429317	0.349583	1.50269	1.5708	0	0	0.676242	-0.383679	0.0389901	0.997381	0.726149	0	0
